<?xml version="1.0" encoding="UTF-8"?>
<svg width="700pt" height="700pt" version="1.1" viewBox="0 0 700 700" xmlns="http://www.w3.org/2000/svg" xmlns:xlink="http://www.w3.org/1999/xlink">
 <defs>
  <symbol id="x" overflow="visible">
   <path d="m24.031-1.4375c-1.2422 0.64844-2.5312 1.1328-3.875 1.4531-1.3438 0.33203-2.7461 0.5-4.2031 0.5-4.3555 0-7.8086-1.2188-10.359-3.6562-2.543-2.4375-3.8125-5.7383-3.8125-9.9062 0-4.1875 1.2695-7.4922 3.8125-9.9219 2.5508-2.4375 6.0039-3.6562 10.359-3.6562 1.457 0 2.8594 0.16797 4.2031 0.5 1.3438 0.32422 2.6328 0.80469 3.875 1.4375v5.4219c-1.25-0.85156-2.4844-1.4766-3.7031-1.875-1.2109-0.39453-2.4844-0.59375-3.8281-0.59375-2.4062 0-4.2969 0.77344-5.6719 2.3125-1.375 1.543-2.0625 3.668-2.0625 6.375 0 2.6992 0.6875 4.8203 2.0625 6.3594 1.375 1.543 3.2656 2.3125 5.6719 2.3125 1.3438 0 2.6172-0.19531 3.8281-0.59375 1.2188-0.40625 2.4531-1.0312 3.7031-1.875z"/>
  </symbol>
  <symbol id="c" overflow="visible">
   <path d="m17.594-14.281c-0.55469-0.25-1.1016-0.4375-1.6406-0.5625-0.54297-0.125-1.0898-0.1875-1.6406-0.1875-1.6172 0-2.8594 0.52344-3.7344 1.5625-0.86719 1.0312-1.2969 2.5117-1.2969 4.4375v9.0312h-6.2656v-19.625h6.2656v3.2344c0.8125-1.2891 1.7383-2.2266 2.7812-2.8125 1.0391-0.59375 2.2891-0.89062 3.75-0.89062 0.21875 0 0.44531 0.011719 0.6875 0.03125 0.25 0.011719 0.60156 0.046875 1.0625 0.10938z"/>
  </symbol>
  <symbol id="a" overflow="visible">
   <path d="m22.594-9.8594v1.7812h-14.656c0.14453 1.4688 0.67188 2.5742 1.5781 3.3125 0.91406 0.74219 2.1914 1.1094 3.8281 1.1094 1.3203 0 2.6758-0.19141 4.0625-0.57812 1.3828-0.39453 2.8047-0.99219 4.2656-1.7969v4.8438c-1.4922 0.5625-2.9766 0.98438-4.4531 1.2656-1.4805 0.28906-2.9648 0.4375-4.4531 0.4375-3.5547 0-6.3125-0.89844-8.2812-2.7031-1.9609-1.8125-2.9375-4.3477-2.9375-7.6094 0-3.1953 0.96094-5.7109 2.8906-7.5469 1.9375-1.832 4.5977-2.75 7.9844-2.75 3.082 0 5.5469 0.93359 7.3906 2.7969 1.8516 1.8555 2.7812 4.3359 2.7812 7.4375zm-6.4375-2.0938c0-1.1875-0.35156-2.1445-1.0469-2.875-0.69922-0.72656-1.6055-1.0938-2.7188-1.0938-1.2188 0-2.2109 0.34375-2.9688 1.0312-0.76172 0.67969-1.2344 1.6562-1.4219 2.9375z"/>
  </symbol>
  <symbol id="j" overflow="visible">
   <path d="m11.812-8.8281c-1.3125 0-2.3047 0.22656-2.9688 0.67188-0.65625 0.4375-0.98438 1.0898-0.98438 1.9531 0 0.79297 0.26562 1.418 0.79688 1.875 0.53125 0.44922 1.2695 0.67188 2.2188 0.67188 1.1758 0 2.1641-0.42188 2.9688-1.2656 0.8125-0.85156 1.2188-1.9141 1.2188-3.1875v-0.71875zm9.5781-2.3594v11.188h-6.3281v-2.9062c-0.84375 1.1875-1.793 2.0586-2.8438 2.6094-1.043 0.53906-2.3203 0.8125-3.8281 0.8125-2.0312 0-3.6836-0.59375-4.9531-1.7812-1.2617-1.1875-1.8906-2.7266-1.8906-4.625 0-2.3008 0.78516-3.9883 2.3594-5.0625 1.582-1.0703 4.0703-1.6094 7.4688-1.6094h3.6875v-0.48438c0-1-0.39062-1.7266-1.1719-2.1875-0.78125-0.45703-2-0.6875-3.6562-0.6875-1.3438 0-2.5938 0.13672-3.75 0.40625-1.1562 0.26172-2.2305 0.66406-3.2188 1.2031v-4.7812c1.332-0.32031 2.6758-0.56641 4.0312-0.73438 1.3633-0.17578 2.7227-0.26562 4.0781-0.26562 3.5312 0 6.082 0.69922 7.6562 2.0938 1.5703 1.3984 2.3594 3.668 2.3594 6.8125z"/>
  </symbol>
  <symbol id="b" overflow="visible">
   <path d="m9.8594-25.188v5.5625h6.4688v4.4844h-6.4688v8.3281c0 0.90625 0.17969 1.5234 0.54688 1.8438 0.36328 0.32422 1.082 0.48438 2.1562 0.48438h3.2188v4.4844h-5.375c-2.4805 0-4.2344-0.51562-5.2656-1.5469s-1.5469-2.7852-1.5469-5.2656v-8.3281h-3.125v-4.4844h3.125v-5.5625z"/>
  </symbol>
  <symbol id="h" overflow="visible">
   <path d="m16.359-16.75v-10.5h6.3125v27.25h-6.3125v-2.8438c-0.86719 1.1562-1.8203 2.0078-2.8594 2.5469-1.0312 0.53906-2.2344 0.8125-3.6094 0.8125-2.418 0-4.4023-0.95703-5.9531-2.875-1.5547-1.9258-2.3281-4.4062-2.3281-7.4375 0-3.0195 0.77344-5.4883 2.3281-7.4062 1.5508-1.9258 3.5352-2.8906 5.9531-2.8906 1.3516 0 2.5508 0.27344 3.5938 0.8125 1.0508 0.54297 2.0078 1.3867 2.875 2.5312zm-4.125 12.703c1.332 0 2.3516-0.48828 3.0625-1.4688 0.70703-0.97656 1.0625-2.4062 1.0625-4.2812 0-1.8633-0.35547-3.2852-1.0625-4.2656-0.71094-0.97656-1.7305-1.4688-3.0625-1.4688-1.3359 0-2.3555 0.49219-3.0625 1.4688-0.71094 0.98047-1.0625 2.4023-1.0625 4.2656 0 1.875 0.35156 3.3047 1.0625 4.2812 0.70703 0.98047 1.7266 1.4688 3.0625 1.4688z"/>
  </symbol>
  <symbol id="i" overflow="visible">
   <path d="m13.453-4.0469c1.3438 0 2.3672-0.48828 3.0781-1.4688 0.70703-0.97656 1.0625-2.4062 1.0625-4.2812 0-1.8633-0.35547-3.2852-1.0625-4.2656-0.71094-0.97656-1.7344-1.4688-3.0781-1.4688s-2.375 0.49609-3.0938 1.4844c-0.71875 0.98047-1.0781 2.3984-1.0781 4.25 0 1.8672 0.35938 3.293 1.0781 4.2812 0.71875 0.98047 1.75 1.4688 3.0938 1.4688zm-4.1719-12.703c0.86328-1.1445 1.8203-1.9883 2.875-2.5312 1.0508-0.53906 2.2578-0.8125 3.625-0.8125 2.4141 0 4.3984 0.96484 5.9531 2.8906 1.5508 1.918 2.3281 4.3867 2.3281 7.4062 0 3.0312-0.77734 5.5117-2.3281 7.4375-1.5547 1.918-3.5391 2.875-5.9531 2.875-1.3672 0-2.5742-0.27344-3.625-0.8125-1.0547-0.55078-2.0117-1.3984-2.875-2.5469v2.8438h-6.2656v-27.25h6.2656z"/>
  </symbol>
  <symbol id="g" overflow="visible">
   <path d="m0.4375-19.625h6.2656l5.2812 13.312 4.4844-13.312h6.2656l-8.25 21.484c-0.82422 2.1758-1.7891 3.7031-2.8906 4.5781-1.1055 0.875-2.5625 1.3125-4.375 1.3125h-3.625v-4.125h1.9531c1.0625 0 1.832-0.17188 2.3125-0.51562 0.48828-0.33594 0.86719-0.9375 1.1406-1.8125l0.17188-0.54688z"/>
  </symbol>
  <symbol id="f" overflow="visible">
   <path d="m19.156-4.7656h-10.531l-1.6719 4.7656h-6.7812l9.6875-26.156h8.0469l9.6875 26.156h-6.7812zm-8.8594-4.8438h7.1719l-3.5781-10.406z"/>
  </symbol>
  <symbol id="w" overflow="visible">
   <path d="m18.344-19v4.7656c-1.3438-0.5625-2.6406-0.98438-3.8906-1.2656s-2.4336-0.42188-3.5469-0.42188c-1.1875 0-2.0742 0.15234-2.6562 0.45312-0.57422 0.29297-0.85938 0.75-0.85938 1.375 0 0.5 0.21875 0.88672 0.65625 1.1562 0.4375 0.26172 1.2227 0.46094 2.3594 0.59375l1.1094 0.15625c3.207 0.40625 5.3633 1.0781 6.4688 2.0156 1.1133 0.92969 1.6719 2.3906 1.6719 4.3906 0 2.0938-0.77344 3.668-2.3125 4.7188-1.543 1.0547-3.8438 1.5781-6.9062 1.5781-1.293 0-2.6328-0.10547-4.0156-0.3125-1.3867-0.20703-2.8086-0.51562-4.2656-0.92188v-4.7656c1.25 0.60547 2.5312 1.0625 3.8438 1.375 1.3125 0.30469 2.6445 0.45312 4 0.45312 1.2266 0 2.1484-0.16406 2.7656-0.5 0.625-0.34375 0.9375-0.84766 0.9375-1.5156 0-0.5625-0.21484-0.97656-0.64062-1.25-0.42969-0.28125-1.2773-0.49219-2.5469-0.64062l-1.1094-0.14062c-2.793-0.35156-4.75-1.0039-5.875-1.9531-1.1172-0.94531-1.6719-2.3828-1.6719-4.3125 0-2.0703 0.70703-3.6094 2.125-4.6094 1.4258-1.0078 3.6133-1.5156 6.5625-1.5156 1.1562 0 2.3672 0.089844 3.6406 0.26562 1.2695 0.17969 2.6562 0.45312 4.1562 0.82812z"/>
  </symbol>
  <symbol id="v" overflow="visible">
   <path d="m3.2969-26.156h18.203v5.0938h-11.469v4.875h10.781v5.0938h-10.781v6h11.844v5.0938h-18.578z"/>
  </symbol>
  <symbol id="u" overflow="visible">
   <path d="m0.54688-19.625h6.2656l4.8906 13.562 4.875-13.562h6.2812l-7.7188 19.625h-6.8906z"/>
  </symbol>
  <symbol id="e" overflow="visible">
   <path d="m22.734-11.953v11.953h-6.2969v-9.1406c0-1.6953-0.042969-2.8633-0.125-3.5-0.074219-0.64453-0.20312-1.1172-0.39062-1.4219-0.24219-0.40625-0.57422-0.72266-1-0.95312-0.41797-0.22656-0.89844-0.34375-1.4375-0.34375-1.3047 0-2.3281 0.50781-3.0781 1.5156-0.75 1.0117-1.125 2.4062-1.125 4.1875v9.6562h-6.2656v-19.625h6.2656v2.875c0.94531-1.1445 1.9531-1.9883 3.0156-2.5312 1.0625-0.53906 2.2344-0.8125 3.5156-0.8125 2.2695 0 3.9883 0.69922 5.1562 2.0938 1.1758 1.3867 1.7656 3.4023 1.7656 6.0469z"/>
  </symbol>
  <symbol id="t" overflow="visible">
   <path d="m3.0156-19.625h6.2656v19.625h-6.2656zm0-7.625h6.2656v5.1094h-6.2656z"/>
  </symbol>
  <symbol id="s" overflow="visible">
   <path d="m3.0156-27.25h6.2656v27.25h-6.2656z"/>
  </symbol>
  <symbol id="r" overflow="visible">
   <path d="m15.922-27.25v4.1094h-3.4688c-0.88672 0-1.5078 0.16406-1.8594 0.48438-0.34375 0.32422-0.51562 0.88281-0.51562 1.6719v1.3594h5.3594v4.4844h-5.3594v15.141h-6.2812v-15.141h-3.1094v-4.4844h3.1094v-1.3594c0-2.1328 0.59375-3.7109 1.7812-4.7344 1.1953-1.0195 3.0469-1.5312 5.5469-1.5312z"/>
  </symbol>
  <symbol id="d" overflow="visible">
   <path d="m12.344-15.609c-1.3867 0-2.4453 0.5-3.1719 1.5-0.73047 1-1.0938 2.4375-1.0938 4.3125 0 1.8867 0.36328 3.3281 1.0938 4.3281 0.72656 1 1.7852 1.5 3.1719 1.5 1.375 0 2.4219-0.5 3.1406-1.5 0.72656-1 1.0938-2.4414 1.0938-4.3281 0-1.875-0.36719-3.3125-1.0938-4.3125-0.71875-1-1.7656-1.5-3.1406-1.5zm0-4.4844c3.375 0 6.0078 0.91406 7.9062 2.7344 1.9062 1.8242 2.8594 4.3438 2.8594 7.5625 0 3.2305-0.95312 5.7578-2.8594 7.5781-1.8984 1.8242-4.5312 2.7344-7.9062 2.7344-3.3867 0-6.0312-0.91016-7.9375-2.7344-1.9062-1.8203-2.8594-4.3477-2.8594-7.5781 0-3.2188 0.95312-5.7383 2.8594-7.5625 1.9062-1.8203 4.5508-2.7344 7.9375-2.7344z"/>
  </symbol>
  <symbol id="q" overflow="visible">
   <path d="m21.203-16.359c0.78906-1.2188 1.7266-2.1445 2.8125-2.7812 1.0938-0.63281 2.2969-0.95312 3.6094-0.95312 2.25 0 3.9609 0.69922 5.1406 2.0938 1.1875 1.3867 1.7812 3.4023 1.7812 6.0469v11.953h-6.3125v-10.234c0.007813-0.14453 0.015625-0.30078 0.015625-0.46875 0.007812-0.16406 0.015625-0.39844 0.015625-0.70312 0-1.3828-0.20312-2.3906-0.60938-3.0156s-1.0625-0.9375-1.9688-0.9375c-1.1992 0-2.1211 0.49219-2.7656 1.4688-0.64844 0.98047-0.98438 2.3984-1.0156 4.25v9.6406h-6.2969v-10.234c0-2.1641-0.1875-3.5625-0.5625-4.1875s-1.043-0.9375-2-0.9375c-1.1992 0-2.125 0.49609-2.7812 1.4844-0.65625 0.98047-0.98438 2.3867-0.98438 4.2188v9.6562h-6.2969v-19.625h6.2969v2.875c0.76953-1.1016 1.6562-1.9375 2.6562-2.5s2.0977-0.84375 3.2969-0.84375c1.3516 0 2.5508 0.32812 3.5938 0.98438 1.0391 0.65625 1.832 1.5742 2.375 2.75z"/>
  </symbol>
  <symbol id="p" overflow="visible">
   <path d="m22.734-11.953v11.953h-6.2969v-9.1094c0-1.7188-0.042969-2.8945-0.125-3.5312-0.074219-0.64453-0.20312-1.1172-0.39062-1.4219-0.24219-0.40625-0.57422-0.72266-1-0.95312-0.41797-0.22656-0.89844-0.34375-1.4375-0.34375-1.3047 0-2.3281 0.50781-3.0781 1.5156-0.75 1.0117-1.125 2.4062-1.125 4.1875v9.6562h-6.2656v-27.25h6.2656v10.5c0.94531-1.1445 1.9531-1.9883 3.0156-2.5312 1.0625-0.53906 2.2344-0.8125 3.5156-0.8125 2.2695 0 3.9883 0.69922 5.1562 2.0938 1.1758 1.3867 1.7656 3.4023 1.7656 6.0469z"/>
  </symbol>
  <symbol id="o" overflow="visible">
   <path d="m3.2969-26.156h7.5312l9.5156 17.938v-17.938h6.3906v26.156h-7.5312l-9.5156-17.938v17.938h-6.3906z"/>
  </symbol>

 </defs>
 <g>
  <path d="m350.02 96.977c-86.32-186.49-387.06-87.238-310.6 154.93 41.031 120.43 124.43 173.81 310.59 308.09 186.18-134.28 269.55-187.68 310.59-308.09 76.426-242.17-224.28-341.42-310.58-154.93z"/>
  <use x="27.085938" y="667.636719" xlink:href="#x"/>
  <use x="53.417969" y="667.636719" xlink:href="#c"/>
  <use x="71.109375" y="667.636719" xlink:href="#a"/>
  <use x="95.445312" y="667.636719" xlink:href="#j"/>
  <use x="119.65625" y="667.636719" xlink:href="#b"/>
  <use x="136.808594" y="667.636719" xlink:href="#a"/>
  <use x="161.140625" y="667.636719" xlink:href="#h"/>
  <use x="199.316406" y="667.636719" xlink:href="#i"/>
  <use x="225" y="667.636719" xlink:href="#g"/>
  <use x="260.878906" y="667.636719" xlink:href="#f"/>
  <use x="288.648438" y="667.636719" xlink:href="#b"/>
  <use x="305.800781" y="667.636719" xlink:href="#a"/>
  <use x="330.132813" y="667.636719" xlink:href="#w"/>
  <use x="363.980469" y="667.636719" xlink:href="#v"/>
  <use x="388.488281" y="667.636719" xlink:href="#u"/>
  <use x="411.878906" y="667.636719" xlink:href="#c"/>
  <use x="429.574219" y="667.636719" xlink:href="#a"/>
  <use x="453.90625" y="667.636719" xlink:href="#e"/>
  <use x="491.941406" y="667.636719" xlink:href="#f"/>
  <use x="519.710938" y="667.636719" xlink:href="#g"/>
  <use x="543.097656" y="667.636719" xlink:href="#h"/>
  <use x="568.78125" y="667.636719" xlink:href="#t"/>
  <use x="581.078125" y="667.636719" xlink:href="#e"/>
  <use x="606.621094" y="667.636719" xlink:href="#a"/>
  <use x="630.957031" y="667.636719" xlink:href="#s"/>
  <use x="27.085938" y="703.519531" xlink:href="#r"/>
  <use x="42.695312" y="703.519531" xlink:href="#c"/>
  <use x="60.390625" y="703.519531" xlink:href="#d"/>
  <use x="85.039062" y="703.519531" xlink:href="#q"/>
  <use x="134.914062" y="703.519531" xlink:href="#b"/>
  <use x="152.066406" y="703.519531" xlink:href="#p"/>
  <use x="177.609375" y="703.519531" xlink:href="#a"/>
  <use x="214.4375" y="703.519531" xlink:href="#o"/>
  <use x="244.464844" y="703.519531" xlink:href="#d"/>
  <use x="269.113281" y="703.519531" xlink:href="#n"/>
  <use x="294.65625" y="703.519531" xlink:href="#e"/>
  <use x="332.691406" y="703.519531" xlink:href="#m"/>
  <use x="358.988281" y="703.519531" xlink:href="#c"/>
  <use x="376.683594" y="703.519531" xlink:href="#d"/>
  <use x="401.332031" y="703.519531" xlink:href="#l"/>
  <use x="413.628906" y="703.519531" xlink:href="#a"/>
  <use x="437.964844" y="703.519531" xlink:href="#k"/>
  <use x="459.234375" y="703.519531" xlink:href="#b"/>
 </g>
</svg>
